<svg xmlns="http://www.w3.org/2000/svg" width="544" height="425" viewBox="0 0 544 425"><g id="Ebene_1" data-name="Ebene 1"><rect x="-7.23" y="-16.84" width="560.44" height="467.53" fill="#97c21e"/><path d="M238.82,381.75c-13.34,0-27-1.2-39.69-2.32-16.26-1.43-31.62-2.78-43.27-1.42-13.64,1.59-24.82.27-35.63-1-14-1.66-28.47-3.38-49.83.95-39.81,8.05-78.22.32-79.83,0l-4.79-1V103.51l6.54.6c1,.09,97,8.71,134.72.12,23-5.23,44.77-3.25,65.85-1.33,16.28,1.48,31.66,2.88,47.6,1.22,20.64-2.15,37.3-1.08,52-.14,12.69.82,24.68,1.59,37.24.14,14.41-1.65,25.82-.83,36.86,0s22.21,1.6,36.86,0c30.19-3.22,144.1-.16,148.93,0l5.84.16V378.64l-6.56-.61c-.37,0-37.46-3.42-71.06,0-16.08,1.64-30.15.21-43.75-1.18-16.2-1.65-30.2-3.07-44.52,1s-33.84,2-54.59-.16c-22.59-2.34-45.94-4.77-64.17.18C262.8,380.77,250.92,381.75,238.82,381.75ZM167,365.45c10.14,0,21.45,1,33.22,2,23.28,2,49.65,4.37,70.25-1.22,20.38-5.52,44.87-3,68.55-.52,19.57,2,38,3.95,50.08.54,16.53-4.68,32.3-3.08,49-1.38,13,1.33,26.45,2.7,41.32,1.19,26.56-2.7,54.44-1.37,66.83-.52V115.93c-24.13-.59-115.91-2.6-141.5.12-15.71,1.67-27.54.83-39,0-11-.79-21.34-1.53-34.63,0-13.63,1.56-26.14.76-39.38-.09-14.92-1-30.35-1.95-50,.09-17.11,1.79-33.8.27-49.94-1.2-21.07-1.92-41-3.73-62.1,1.09-34,7.75-109.15,2.51-131.92.68V367c11.27,1.73,40.75,5.14,70.24-.83,23.24-4.7,38.69-2.87,53.62-1.09,10.59,1.25,20.59,2.44,32.83,1A109.76,109.76,0,0,1,167,365.45Z" fill="#8db125"/><ellipse cx="250.75" cy="86.64" rx="37.12" ry="2.93" fill="#88ac27"/><path d="M553.21,372.05s-37.62-3.51-72.23,0-61.39-7.9-89.3,0-82.23-9.88-118.69,0-86.7-3.51-116.84,0-46.89-7.9-86,0-77.42,0-77.42,0v-262s97.52,8.89,136.59,0,74.79,4,112.74,0,61.4,3.2,89.3,0,43.54,3.2,73.68,0,148.13,0,148.13,0Z" fill="#8ed1f5"/><polygon points="279.43 85.96 222.89 85.96 222.06 61.41 230.12 45.11 250.33 44.08 252.6 30.66 268.49 29.09 271.39 28.8 276.96 41.18 279.43 85.96" fill="#ffe57a"/><polygon points="252.6 30.66 268.49 29.09 261.9 59.55 240.64 60.59 230.12 45.11 250.33 44.08 252.6 30.66" fill="#c05017"/><polygon points="276.96 41.18 268.49 29.09 271.39 28.8 276.96 41.18" fill="#c05017"/><polygon points="250.33 44.08 261.9 59.55 240.64 60.59 230.12 45.11 250.33 44.08" fill="#e25d10"/><polygon points="240.64 60.59 240.64 85.98 222.89 85.96 222.06 61.41 230.12 45.11 240.64 60.59" fill="#ebd271"/><polygon points="256.42 23.64 257.56 35 260.04 35 261.9 22.62 256.42 23.64" fill="#74160e"/><path d="M230.12,52.37h0a1.45,1.45,0,0,1,1.45,1.45h0V62.5h0l-2.91-.38V53.83a1.46,1.46,0,0,1,1.46-1.46Z" fill="#74160e"/><path d="M269.92,40.06h0a1.45,1.45,0,0,1,1.45,1.45v8l-2.86.73h0V41.51A1.44,1.44,0,0,1,269.92,40.06Z" fill="#74160e"/><path d="M255.63,74.08l-7.59-.5V69.35a3.8,3.8,0,0,1,3.8-3.8h0a3.8,3.8,0,0,1,3.79,3.8Z" fill="#74160e"/><path d="M269.53,66.05h0a5.38,5.38,0,0,1,5.38,5.38h0V86H264.15V71.44a5.36,5.36,0,0,1,5.37-5.39Z" fill="#74160e"/><path d="M269.53,66.79h0a4.68,4.68,0,0,1,4.68,4.68V86h-9.36V71.47a4.67,4.67,0,0,1,4.68-4.68Z" fill="#b96449"/><ellipse cx="272.82" cy="77.96" rx="0.59" ry="0.98" transform="translate(-10.04 55.61) rotate(-11.43)" fill="#74160e"/><ellipse cx="270.05" cy="71.46" rx="1.84" ry="2" transform="translate(44.1 235.73) rotate(-50.84)" fill="#74160e"/><path d="M33.36,120.27c11,.88,22,1.42,33,1.71s22,.21,32.94-.57l8.18-.73c2.71-.39,5.44-.69,8.13-1.15l4-.76,2-.38,2-.53,4-1.06c1.35-.37,2.69-.73,4-1A103.65,103.65,0,0,1,164.52,113,120.56,120.56,0,0,0,132,117.27c-1.32.35-2.63.74-3.93,1.14l-4,1.14-2,.58-2,.42-4.08.85c-2.72.51-5.48.81-8.22,1.22s-5.51.55-8.27.78a277.45,277.45,0,0,1-33.13.13A329.6,329.6,0,0,1,33.36,120.27Z" fill="#b0dff6"/><path d="M277,123.07a280.79,280.79,0,0,1,32.34-7.63,227.88,227.88,0,0,1,33.1-3.55,129.52,129.52,0,0,1,16.7.62c1.38.16,2.77.31,4.15.55.69.11,1.38.21,2.07.34l2.06.42c1.38.25,2.72.65,4.08,1s2.64.66,4,.94a96.19,96.19,0,0,0,32.86,1.36,76.46,76.46,0,0,1-16.54,1.71,99.64,99.64,0,0,1-16.61-1.54c-1.38-.24-2.75-.51-4.12-.85s-2.65-.68-4-.9l-2-.37-2-.3c-1.35-.21-2.71-.34-4.08-.47a132.66,132.66,0,0,0-16.45-.5,273.39,273.39,0,0,0-32.9,3.09q-8.19,1.22-16.34,2.75C287.77,120.71,282.36,121.86,277,123.07Z" fill="#b0dff6"/><path d="M82.47,360.94c11,.88,22,1.41,33,1.71s22,.21,32.93-.57l8.19-.73c2.71-.39,5.43-.69,8.12-1.15l4-.76,2-.38,2-.53,3.95-1.06c1.35-.37,2.69-.73,4-1.05a103.9,103.9,0,0,1,32.93-2.74,120.27,120.27,0,0,0-32.55,4.26c-1.32.35-2.63.73-3.92,1.13l-4,1.15-2,.58-2,.42-4.08.84c-2.73.51-5.48.82-8.23,1.23s-5.51.55-8.26.78a277.61,277.61,0,0,1-33.14.13C104.37,363.64,93.37,362.59,82.47,360.94Z" fill="#b0dff6"/><path d="M122.19,352.54c6.08.74,12.16,1.19,18.23,1.44a117.93,117.93,0,0,0,18.14-.58c1.49-.23,3-.4,4.46-.68l2.2-.48a19.69,19.69,0,0,0,2.17-.55,31,31,0,0,0,4.23-1.45l2-.88c.74-.34,1.45-.63,2.18-.9a42.61,42.61,0,0,1,9-2.36,31.59,31.59,0,0,1,9.21,0,42.31,42.31,0,0,0-17.6,3.81c-.68.3-1.37.63-2,1l-2.13,1a32.72,32.72,0,0,1-4.39,1.66,17.38,17.38,0,0,1-2.25.61l-2.28.52c-1.52.31-3.06.5-4.59.75a92.71,92.71,0,0,1-18.47.14A112.17,112.17,0,0,1,122.19,352.54Z" fill="#b0dff6"/><path d="M432.35,365c6.08.74,12.16,1.19,18.24,1.44a117.8,117.8,0,0,0,18.13-.58c1.49-.23,3-.4,4.46-.68l2.2-.48a19.69,19.69,0,0,0,2.17-.55,31,31,0,0,0,4.23-1.45l2.05-.88c.74-.34,1.45-.63,2.18-.9a42.61,42.61,0,0,1,9-2.36,31.65,31.65,0,0,1,9.22,0,42.36,42.36,0,0,0-17.61,3.81c-.68.3-1.37.63-2,1l-2.13,1a33.11,33.11,0,0,1-4.38,1.66,18,18,0,0,1-2.26.61l-2.27.52c-1.53.31-3.07.5-4.6.75a92.71,92.71,0,0,1-18.47.14A112.17,112.17,0,0,1,432.35,365Z" fill="#b0dff6"/><path d="M98.94,162.13A87.83,87.83,0,0,1,114,153.75a146.62,146.62,0,0,1,16.26-6,163.1,163.1,0,0,1,16.84-4.2c2.84-.6,5.7-1,8.56-1.53l4.3-.6c1.43-.21,2.87-.4,4.31-.54A255,255,0,0,1,199,139.53a297.37,297.37,0,0,1,34.63,3.1c5.73.86,11.46,1.77,17.14,2.91l4.27.82,4.24.95,8.45,1.89c11.13,2.52,22.3,4.88,33.56,6.6s22.53,3.19,33.85,4a242.83,242.83,0,0,0,33.9.21c2.81-.2,5.61-.46,8.41-.7l4.18-.52c1.39-.17,2.79-.35,4.16-.6l4.14-.69,4.09-.86c1.38-.26,2.71-.63,4.06-1l2-.52,2-.59,2-.6,2-.68,2-.69,2.07-.75c2.75-1,5.54-1.92,8.34-2.79a169,169,0,0,1,17-4.35q8.64-1.73,17.42-2.58a172,172,0,0,1,17.57-.74c5.83,0,11.65.28,17.45.74s11.57,1.12,17.32,1.94a320.91,320.91,0,0,1,34.08,6.78l8.33,2,4.17,1,4.19.82,8.41,1.62,8.45,1.28a203.75,203.75,0,0,0,34.1,2.22c1.42-.05,2.85-.07,4.27-.15l4.27-.34c.71-.07,1.42-.1,2.13-.19l2.12-.29c1.41-.21,2.84-.33,4.23-.63s2.82-.49,4.21-.8,2.79-.65,4.16-1.06a41.05,41.05,0,0,0,8-3.1,41,41,0,0,1-7.81,3.67c-1.35.52-2.74.91-4.11,1.36s-2.79.74-4.19,1.12c-.7.19-1.41.34-2.12.47l-2.13.42-2.13.41c-.71.14-1.43.21-2.14.32l-4.3.6c-1.44.17-2.88.27-4.33.4a196.94,196.94,0,0,1-34.68-.53l-8.64-1-8.57-1.32-4.29-.67-4.26-.83-8.52-1.68c-5.62-1.15-11.17-2.32-16.79-3.27s-11.25-1.77-16.89-2.42-11.31-1.13-17-1.43-11.33-.48-17-.43A160.77,160.77,0,0,0,437,152.11c-5.48,1.21-10.93,2.6-16.3,4.3-2.67.86-5.34,1.75-8,2.73l-2,.73-2.1.75c-.7.25-1.41.51-2.12.74l-2.14.66-2.13.66-2.16.56c-1.43.37-2.87.77-4.31,1.06l-4.34.93-4.35.76c-1.46.27-2.91.47-4.37.65l-4.37.57c-2.92.27-5.84.56-8.76.77a251.8,251.8,0,0,1-35-.4,338.58,338.58,0,0,1-34.55-4.33c-11.43-1.94-22.72-4.51-33.95-7.26s-22.18-5.29-33.43-7.22c-22.43-3.84-45.29-5.58-68-4-1.43.07-2.84.19-4.26.33l-4.26.39c-2.82.35-5.66.64-8.47,1.1-5.64.84-11.25,1.92-16.79,3.28a148.82,148.82,0,0,0-16.39,5A87.29,87.29,0,0,0,98.94,162.13Z" fill="#9cd8f4"/><path d="M-106.18,207a87.93,87.93,0,0,1,15.24-8,148.9,148.9,0,0,1,16.3-5.67c5.54-1.59,11.16-2.87,16.83-3.91,2.82-.56,5.68-1,8.52-1.4l4.29-.54c1.43-.19,2.86-.36,4.3-.48,23-2.22,46.17-1,68.94,2.47,5.69.9,11.38,1.85,17,3l4.24.85,4.21,1,8.42,1.93c11.16,2.61,22.36,5.05,33.67,6.84,11.29,1.95,22.67,3.26,34.08,4.09a246.12,246.12,0,0,0,34.24.23c2.84-.2,5.68-.46,8.52-.71l4.24-.54c1.41-.17,2.82-.35,4.22-.61l4.21-.71,4.17-.87c1.4-.27,2.76-.65,4.14-1l2.06-.53,2-.61,2-.62c.67-.21,1.33-.46,2-.69,1.32-.46,2.68-1,4-1.45,2.72-1,5.47-1.9,8.23-2.77,5.53-1.71,11.15-3.15,16.82-4.32a165.87,165.87,0,0,1,34.5-3.48,255.16,255.16,0,0,1,34.51,2.42,336.5,336.5,0,0,1,34,6.45l8.39,1.87,4.19.93,4.23.76,8.46,1.52,8.51,1.18a199.49,199.49,0,0,0,34.28,1.7c1.43-.08,2.86-.12,4.29-.23l4.28-.43c.71-.07,1.43-.12,2.13-.23l2.13-.33c1.41-.24,2.84-.38,4.23-.71s2.82-.56,4.21-.9,2.78-.71,4.14-1.15a41.41,41.41,0,0,0,7.94-3.29,40.77,40.77,0,0,1-7.87,3.5c-1.36.48-2.75.84-4.13,1.26s-2.8.68-4.19,1-2.83.53-4.25.81l-2.12.37c-.72.12-1.43.18-2.15.28l-4.29.51c-1.43.14-2.87.21-4.3.32a201.89,201.89,0,0,1-34.5-1l-8.58-1.07-8.52-1.43-4.26-.71-4.23-.89-8.45-1.77a332.6,332.6,0,0,0-33.82-6c-22.69-2.62-45.84-3.48-68.17,1.45-5.57,1.18-11.1,2.61-16.53,4.33-2.72.86-5.42,1.76-8.1,2.75-1.33.5-2.67,1-4.06,1.48-.69.24-1.37.49-2.06.72l-2.09.64-2.09.64-2.11.55c-1.41.36-2.81.76-4.23,1l-4.26.91-4.29.74c-1.42.27-2.86.46-4.3.64l-4.31.56c-2.88.26-5.76.55-8.65.75a250.1,250.1,0,0,1-34.63-.37c-11.51-.88-23-2.25-34.33-4.25-11.37-1.85-22.63-4.35-33.83-7s-22.33-5.18-33.64-7a278.32,278.32,0,0,0-68.45-3.28c-1.43.09-2.85.23-4.28.39l-4.27.45c-2.83.39-5.68.73-8.5,1.23-5.65.93-11.27,2.08-16.81,3.57a146.94,146.94,0,0,0-16.34,5.32A87.58,87.58,0,0,0-106.18,207Z" fill="#9cd8f4"/><path d="M259.78,356.5h-2v-5h2Zm0-11h-2v-5h2Zm0-11h-2v-5h2Zm0-11h-2v-5h2Zm0-11h-2v-5h2Zm0-11h-2v-5h2Zm0-11h-2v-5h2Zm0-11h-2v-5h2Zm0-11h-2v-5h2Zm0-11h-2v-5h2Zm0-11h-2v-5h2Zm0-11h-2v-5h2Zm0-11h-2v-5h2Zm0-11h-2v-5h2Zm0-11h-2v-5h2Zm0-11h-2v-5h2Zm0-11h-2v-5h2Zm0-11h-2v-5h2Zm0-11h-2v-5h2Zm0-11h-2v-5h2Zm0-11h-2v-5h2Zm0-11h-2v-5h2Zm0-11h-2v-5h2Z" fill="#2d5464"/><path d="M363.77,354h-2v-5h2Zm0-11h-2v-5h2Zm0-11h-2v-5h2Zm0-11h-2v-5h2Zm0-11h-2v-5h2Zm0-11h-2v-5h2Zm0-11h-2v-5h2Zm0-11h-2v-5h2Zm0-11h-2v-5h2Zm0-11h-2v-5h2Zm0-11h-2v-5h2Zm0-11h-2v-5h2Zm0-11h-2v-5h2Zm0-11h-2v-5h2Z" fill="#ec680a"/><rect x="257.28" y="217.87" width="3" height="129.65" fill="#ec6807"/><polygon points="264.01 221.44 258.78 201.93 253.55 221.44 264.01 221.44" fill="#ec6807"/><rect x="153.16" y="215.42" width="9.6" height="1" fill="#ec6807"/><polygon points="162.18 217.92 165.63 215.92 162.18 213.93 162.18 217.92" fill="#ec6807"/><rect x="259.16" y="354.42" width="87.65" height="3" fill="#448b33"/><polygon points="343.24 361.15 362.75 355.93 343.24 350.69 343.24 361.15" fill="#448b33"/><rect x="222.12" y="284.75" width="168.08" height="3" transform="matrix(0.56, -0.83, 0.83, 0.56, -102.36, 380)" fill="#015d7c"/><polygon points="355.5 222.46 362.08 203.36 346.83 216.61 355.5 222.46" fill="#015d7c"/><path d="M159.76,235h-2l-4.44-13.78h2l3.46,11.72,3.46-11.72h1.92Z" fill="#ec6807"/><path d="M172.62,230.25l-.76.85a3.43,3.43,0,0,0-2.29-.88c-1,0-1.8.47-1.8,1.43s.39,1.25,2.2,1.81c1.6.49,3,1.12,3,3,0,1.75-1.33,3-3.59,3a4.72,4.72,0,0,1-3.41-1.29l.76-.85a4,4,0,0,0,2.64,1c1.18,0,2.16-.58,2.16-1.79,0-1-.47-1.42-2.17-1.94-2-.6-3-1.34-3-2.9s1.31-2.63,3.16-2.63A4.24,4.24,0,0,1,172.62,230.25Z" fill="#ec6807"/><path d="M180.05,232.28l-.64.84a2.6,2.6,0,0,0-1.65-.57c-1.21,0-2,.95-2,2.95s.75,2.84,2,2.84a2.89,2.89,0,0,0,1.68-.58l.61.87a3.63,3.63,0,0,1-2.34.84c-2.07,0-3.36-1.47-3.36-3.94s1.27-4.09,3.36-4.09A3.39,3.39,0,0,1,180.05,232.28Z" fill="#ec6807"/><path d="M187.67,233.79v5.51h-1.34V234c0-1.15-.49-1.49-1.22-1.49a2.35,2.35,0,0,0-1.94,1.35v5.46h-1.34V228.55l1.34-.15v4.28a2.78,2.78,0,0,1,2.27-1.24A2.12,2.12,0,0,1,187.67,233.79Z" fill="#ec6807"/><path d="M197.34,239.3h-1.82l-1.34-6.47-1.39,6.47H191l-1.79-7.68h1.34l1.39,6.75,1.51-6.75H195l1.44,6.75,1.4-6.75h1.29Z" fill="#ec6807"/><path d="M202.32,228.85a.94.94,0,0,1-1.88,0,.94.94,0,0,1,1.88,0Zm-.26,10.45h-1.34v-7.68h1.34Z" fill="#ec6807"/><path d="M214.54,233.79v5.51h-1.35V234c0-1.15-.49-1.49-1.07-1.49-.83,0-1.29.54-1.81,1.36v5.45H209V234c0-1.15-.5-1.49-1.08-1.49-.83,0-1.3.54-1.81,1.36v5.45h-1.34v-7.68h1.15l.12,1.12a2.58,2.58,0,0,1,2.22-1.3,1.94,1.94,0,0,1,1.93,1.39,2.69,2.69,0,0,1,2.29-1.39A2.09,2.09,0,0,1,214.54,233.79Z" fill="#ec6807"/><path d="M226.92,233.79v5.51h-1.34V234c0-1.15-.49-1.49-1.08-1.49-.83,0-1.28.54-1.8,1.36v5.45h-1.34V234c0-1.15-.5-1.49-1.08-1.49-.83,0-1.3.54-1.81,1.36v5.45h-1.34v-7.68h1.15l.12,1.12a2.57,2.57,0,0,1,2.21-1.3,1.94,1.94,0,0,1,1.94,1.39,2.69,2.69,0,0,1,2.29-1.39A2.09,2.09,0,0,1,226.92,233.79Z" fill="#ec6807"/><path d="M235.33,235.92h-4.89c.13,1.78,1,2.46,2.07,2.46a3.21,3.21,0,0,0,2-.67l.59.8a4.18,4.18,0,0,1-2.68,1c-2.15,0-3.4-1.5-3.4-3.93s1.21-4.1,3.19-4.1,3.16,1.45,3.16,3.79A6.6,6.6,0,0,1,235.33,235.92ZM234,234.84c0-1.5-.6-2.33-1.81-2.33-1,0-1.69.71-1.79,2.42H234Z" fill="#ec6807"/><path d="M241.54,231.53l-.24,1.31a2.86,2.86,0,0,0-.67-.08c-1,0-1.52.68-1.84,2.15v4.39h-1.34v-7.68h1.15l.13,1.56a2.2,2.2,0,0,1,2.06-1.74A3.14,3.14,0,0,1,241.54,231.53Z" fill="#ec6807"/><rect x="370.04" y="337.11" width="9.6" height="1" fill="#438b34"/><polygon points="379.06 339.6 382.51 337.61 379.06 335.61 379.06 339.6" fill="#438b34"/><path d="M376.64,356.66h-2l-4.44-13.78h2l3.46,11.72,3.46-11.72h1.93Z" fill="#438b34"/><path d="M392.1,361h-1.78l-1.85-8.4L386.6,361h-1.73l-2-10h1.35l1.62,8.83,1.94-8.83h1.47l2,8.83,1.68-8.83h1.27Z" fill="#438b34"/><path d="M401.34,360.23l-.31.93a1.55,1.55,0,0,1-1.5-1.15,2.63,2.63,0,0,1-2.29,1.15,2.24,2.24,0,0,1-2.45-2.32c0-1.64,1.24-2.53,3.38-2.53h1.18v-.57c0-1.11-.53-1.52-1.6-1.52a7,7,0,0,0-2.07.41l-.33-1a7.46,7.46,0,0,1,2.65-.52c1.85,0,2.69.95,2.69,2.55v3.51C400.69,359.86,400.94,360.08,401.34,360.23Zm-2-1.27V357.2h-1c-1.41,0-2.13.52-2.13,1.57a1.21,1.21,0,0,0,1.33,1.38A2,2,0,0,0,399.35,359Z" fill="#438b34"/><path d="M408.14,354l-.57.85a3.51,3.51,0,0,0-2-.66c-.88,0-1.42.4-1.42,1s.41.92,1.65,1.24c1.62.41,2.55,1.05,2.55,2.39,0,1.6-1.47,2.33-3,2.33a4.22,4.22,0,0,1-2.9-1l.71-.81a3.55,3.55,0,0,0,2.16.74c1,0,1.65-.44,1.65-1.17s-.38-1-1.87-1.44c-1.66-.44-2.31-1.15-2.31-2.23s1.18-2.11,2.76-2.11A4.1,4.1,0,0,1,408.14,354Z" fill="#438b34"/><path d="M414.8,354l-.56.85a3.56,3.56,0,0,0-2-.66c-.87,0-1.41.4-1.41,1s.4.92,1.64,1.24c1.62.41,2.55,1.05,2.55,2.39,0,1.6-1.47,2.33-3,2.33a4.22,4.22,0,0,1-2.9-1l.72-.81a3.5,3.5,0,0,0,2.15.74c1,0,1.65-.44,1.65-1.17s-.38-1-1.87-1.44c-1.66-.44-2.31-1.15-2.31-2.23s1.18-2.11,2.77-2.11A4.07,4.07,0,0,1,414.8,354Z" fill="#438b34"/><path d="M422.69,357.6h-4.9c.13,1.78,1,2.47,2.07,2.47a3.28,3.28,0,0,0,2-.67l.58.8a4.24,4.24,0,0,1-2.68,1c-2.14,0-3.4-1.5-3.4-3.94s1.21-4.09,3.2-4.09,3.16,1.44,3.16,3.79C422.72,357.18,422.7,357.43,422.69,357.6Zm-1.3-1.07c0-1.51-.6-2.34-1.81-2.34-1,0-1.69.72-1.79,2.42h3.6Z" fill="#438b34"/><path d="M428.9,353.22l-.25,1.31a2.31,2.31,0,0,0-.67-.09c-1,0-1.52.69-1.84,2.16V361H424.8V353.3H426l.14,1.56a2.18,2.18,0,0,1,2.05-1.73A3.16,3.16,0,0,1,428.9,353.22Z" fill="#438b34"/><rect x="369.63" y="197.25" width="9.6" height="1" fill="#035d7c"/><polygon points="378.65 199.74 382.11 197.75 378.65 195.75 378.65 199.74" fill="#035d7c"/><path d="M376.24,216.8h-2L369.75,203h2l3.47,11.72L378.72,203h1.92Z" fill="#015d7c"/><path d="M387.49,213.36l-.25,1.31a2.31,2.31,0,0,0-.67-.09c-1,0-1.51.69-1.83,2.16v4.38H383.4v-7.68h1.15l.13,1.56a2.19,2.19,0,0,1,2.05-1.73A3.16,3.16,0,0,1,387.49,213.36Z" fill="#015d7c"/><path d="M394.5,217.74h-4.9c.13,1.78,1,2.47,2.07,2.47a3.28,3.28,0,0,0,2-.67l.58.8a4.24,4.24,0,0,1-2.68,1c-2.14,0-3.39-1.5-3.39-3.94s1.2-4.09,3.19-4.09,3.16,1.44,3.16,3.79C394.53,217.32,394.51,217.57,394.5,217.74Zm-1.3-1.07c0-1.51-.59-2.34-1.8-2.34-1,0-1.69.72-1.8,2.42h3.6Z" fill="#015d7c"/><path d="M401.35,214.14l-.57.85a3.51,3.51,0,0,0-2-.66c-.88,0-1.42.4-1.42,1s.41.92,1.65,1.24c1.62.41,2.55,1,2.55,2.39,0,1.6-1.47,2.33-3,2.33a4.22,4.22,0,0,1-2.9-1l.71-.81a3.52,3.52,0,0,0,2.16.74c1,0,1.65-.44,1.65-1.17s-.38-1-1.87-1.44c-1.66-.44-2.32-1.15-2.32-2.23s1.18-2.11,2.77-2.11A4.1,4.1,0,0,1,401.35,214.14Z" fill="#015d7c"/></g><g id="Ebene_6" data-name="Ebene 6"><circle cx="258.78" cy="356.5" r="10.75" fill="#2d5464"/></g></svg>